<svg width="32" height="33" viewBox="0 0 32 33" fill="none" xmlns="http://www.w3.org/2000/svg">
<g id="instagram 1" clip-path="url(#clip0_318_206)">
<g id="Group">
<path id="Vector" d="M15.8074 3.72661C19.9827 3.72661 20.4779 3.74225 22.1264 3.81783C23.8309 3.89602 25.5863 4.28437 26.8282 5.52628C28.0818 6.77992 28.4584 8.51833 28.5366 10.2281C28.6122 11.8766 28.6278 12.3718 28.6278 16.5471C28.6278 20.7224 28.6122 21.2176 28.5366 22.8661C28.4597 24.5615 28.0623 26.3338 26.8282 27.5679C25.5745 28.8216 23.8374 29.1982 22.1264 29.2764C20.4779 29.352 19.9827 29.3676 15.8074 29.3676C11.632 29.3676 11.1368 29.352 9.48833 29.2764C7.80595 29.1995 6.0102 28.7929 4.78653 27.5679C3.53941 26.3208 3.15628 24.5655 3.07809 22.8661C3.0025 21.2176 2.98687 20.7224 2.98687 16.5471C2.98687 12.3718 3.0025 11.8766 3.07809 10.2281C3.15497 8.53918 3.55635 6.75646 4.78653 5.52628C6.03756 4.27524 7.7825 3.89602 9.48833 3.81783C11.1368 3.74225 11.632 3.72661 15.8074 3.72661ZM15.8074 0.90918C11.5604 0.90918 11.0274 0.927424 9.35932 1.00301C6.94196 1.11378 4.54154 1.78621 2.794 3.53374C1.03994 5.2878 0.37403 7.68301 0.263261 10.0991C0.187678 11.7671 0.169434 12.3001 0.169434 16.5471C0.169434 20.7941 0.187678 21.3271 0.263261 22.9951C0.37403 25.4099 1.04907 27.8168 2.794 29.5605C4.54675 31.3132 6.94587 31.9804 9.35932 32.0912C11.0274 32.1668 11.5604 32.185 15.8074 32.185C20.0544 32.185 20.5874 32.1668 22.2554 32.0912C24.6715 31.9804 27.0745 31.3067 28.8207 29.5605C30.5761 27.8051 31.2407 25.4112 31.3515 22.9951C31.427 21.3271 31.4453 20.7941 31.4453 16.5471C31.4453 12.3001 31.427 11.7671 31.3515 10.0991C31.2407 7.6817 30.567 5.27998 28.8207 3.53374C27.0706 1.7836 24.6649 1.11247 22.2554 1.00301C20.5874 0.927424 20.0544 0.90918 15.8074 0.90918Z" fill="#369FFF"/>
<path id="Vector_2" d="M15.8074 8.51685C11.3728 8.51685 7.77734 12.1123 7.77734 16.5469C7.77734 20.9816 11.3728 24.577 15.8074 24.577C20.2421 24.577 23.8375 20.9816 23.8375 16.5469C23.8375 12.1123 20.2421 8.51685 15.8074 8.51685ZM15.8074 21.7596C12.9287 21.7596 10.5948 19.4256 10.5948 16.5469C10.5948 13.6682 12.9287 11.3343 15.8074 11.3343C18.6861 11.3343 21.0201 13.6682 21.0201 16.5469C21.0201 19.4256 18.6861 21.7596 15.8074 21.7596Z" fill="#369FFF"/>
<path id="Vector_3" d="M24.1556 10.0756C25.192 10.0756 26.0322 9.23545 26.0322 8.19906C26.0322 7.16267 25.192 6.32251 24.1556 6.32251C23.1192 6.32251 22.2791 7.16267 22.2791 8.19906C22.2791 9.23545 23.1192 10.0756 24.1556 10.0756Z" fill="#369FFF"/>
</g>
</g>
<defs>
<clipPath id="clip0_318_206">
<rect width="31.2759" height="31.2759" fill="white" transform="translate(0.169434 0.90918)"/>
</clipPath>
</defs>
</svg>
