<svg width="32" height="33" viewBox="0 0 32 33" fill="none" xmlns="http://www.w3.org/2000/svg">
<g id="linkedin 1" clip-path="url(#clip0_318_215)">
<g id="Group">
<path id="Path_2525" d="M30.5906 29.0365H30.8865L30.3196 28.179C30.6662 28.179 30.85 27.9588 30.8526 27.689C30.8526 27.6786 30.8526 27.6669 30.8513 27.6565C30.8513 27.289 30.6297 27.113 30.1749 27.113H29.4399V29.0365H29.7162V28.1986H30.0563L30.5906 29.0365ZM30.0368 27.9809H29.7162V27.3307H30.1228C30.3326 27.3307 30.5724 27.3645 30.5724 27.6395C30.5724 27.9549 30.3313 27.9809 30.0368 27.9809Z" fill="#369FFF"/>
<path id="Path_2520" d="M23.1484 25.7643H19.2298V19.6277C19.2298 18.1643 19.2038 16.2812 17.1917 16.2812C15.1509 16.2812 14.8382 17.875 14.8382 19.5222V25.7643H10.9209V13.1445H14.6831V14.8686H14.7352C15.5028 13.5576 16.9284 12.7744 18.4466 12.8305C22.4187 12.8305 23.1497 15.4433 23.1497 18.8406L23.1484 25.7643ZM6.49925 11.4191C5.243 11.4191 4.22523 10.4014 4.22523 9.14512C4.22523 7.88888 5.243 6.87111 6.49925 6.87111C7.7555 6.87111 8.77326 7.88888 8.77326 9.14512C8.77326 10.4014 7.7555 11.4191 6.49925 11.4191ZM8.4579 25.7643H4.53539V13.1445H8.4579V25.7643ZM25.1019 3.23268H2.56631C1.50163 3.22095 0.62851 4.07452 0.615479 5.13921V27.7673C0.62851 28.8333 1.50163 29.6868 2.56631 29.6751H25.1019C26.1692 29.6881 27.0462 28.8346 27.0605 27.7673V5.1379C27.0449 4.07061 26.1679 3.21704 25.1019 3.23138" fill="#369FFF"/>
<path id="Path_2526" d="M30.0706 26.2571C29.075 26.2662 28.2748 27.082 28.2853 28.0776C28.2944 29.0732 29.1102 29.8734 30.1058 29.8629C31.1014 29.8538 31.9015 29.038 31.8911 28.0424C31.882 27.0598 31.0871 26.2662 30.1058 26.2571H30.0706ZM30.1123 29.6557C29.2392 29.6701 28.4781 28.9755 28.4638 28.1024C28.4495 27.2292 29.1453 26.5099 30.0185 26.4956C30.8916 26.4812 31.6109 27.1771 31.6253 28.0502C31.6253 28.0594 31.6253 28.0672 31.6253 28.0763C31.6435 28.9299 30.9659 29.6375 30.1123 29.6557H30.0719H30.1123Z" fill="#369FFF"/>
</g>
</g>
<defs>
<clipPath id="clip0_318_215">
<rect width="31.2759" height="31.2759" fill="white" transform="translate(0.615479 0.90918)"/>
</clipPath>
</defs>
</svg>
