<svg width="30" height="35" viewBox="0 0 30 35" fill="none" xmlns="http://www.w3.org/2000/svg">
<path d="M26.7188 3.65066H19.9256C19.243 1.63081 17.4553 0.168152 15.3426 0.168152C13.2299 0.168152 11.4422 1.63081 10.7596 3.65066H3.96641C2.17872 3.65066 0.716064 5.21779 0.716064 7.13317V31.5107C0.716064 33.4261 2.17872 34.9932 3.96641 34.9932H26.7188C28.5065 34.9932 29.9691 33.4261 29.9691 31.5107V7.13317C29.9691 5.21779 28.5065 3.65066 26.7188 3.65066ZM15.3426 3.65066C16.2364 3.65066 16.9678 4.43423 16.9678 5.39192C16.9678 6.34961 16.2364 7.13317 15.3426 7.13317C14.4488 7.13317 13.7174 6.34961 13.7174 5.39192C13.7174 4.43423 14.4488 3.65066 15.3426 3.65066ZM18.5929 28.0282H7.21675V24.5457H18.5929V28.0282ZM23.4685 21.0632H7.21675V17.5807H23.4685V21.0632ZM23.4685 14.0982H7.21675V10.6157H23.4685V14.0982Z" fill="#369FFF"/>
</svg>
