<svg width="48" height="46" viewBox="0 0 48 46" fill="none" xmlns="http://www.w3.org/2000/svg">
<g clip-path="url(#clip0_318_189)">
<path d="M42.1911 0.500977H5.20129C2.42699 0.500977 0.177979 2.64457 0.177979 5.28882V40.5447C0.177979 43.189 2.42699 45.3326 5.20129 45.3326H42.1911C44.9654 45.3326 47.2144 43.189 47.2144 40.5447V5.28882C47.2144 2.64457 44.9654 0.500977 42.1911 0.500977Z" fill="#369FFF"/>
<path d="M8.62616 6.92104C8.62616 6.01959 7.85945 5.28882 6.91366 5.28882C5.96788 5.28882 5.20117 6.01959 5.20117 6.92104V35.8657C5.20117 36.7671 5.96788 37.4979 6.91366 37.4979C7.85945 37.4979 8.62616 36.7671 8.62616 35.8657V6.92104Z" fill="#F7F7F7"/>
<path d="M13.4211 6.92104C13.4211 6.01959 12.6544 5.28882 11.7086 5.28882C10.7628 5.28882 9.99609 6.01959 9.99609 6.92104V14.9733C9.99609 15.8748 10.7628 16.6056 11.7086 16.6056C12.6544 16.6056 13.4211 15.8748 13.4211 14.9733V6.92104Z" fill="#F7F7F7"/>
<path d="M13.4211 19.5434C13.4211 18.6419 12.6544 17.9111 11.7086 17.9111C10.7628 17.9111 9.99609 18.6419 9.99609 19.5434V30.6424C9.99609 31.5439 10.7628 32.2747 11.7086 32.2747C12.6544 32.2747 13.4211 31.5439 13.4211 30.6424V19.5434Z" fill="#F7F7F7"/>
<path d="M18.2162 6.92104C18.2162 6.01959 17.4495 5.28882 16.5038 5.28882C15.558 5.28882 14.7913 6.01959 14.7913 6.92104V30.6426C14.7913 31.5441 15.558 32.2748 16.5038 32.2748C17.4495 32.2748 18.2162 31.5441 18.2162 30.6426V6.92104Z" fill="#F7F7F7"/>
<path d="M23.0112 6.92104C23.0112 6.01959 22.2445 5.28882 21.2987 5.28882C20.3529 5.28882 19.5862 6.01959 19.5862 6.92104V30.6426C19.5862 31.5441 20.3529 32.2748 21.2987 32.2748C22.2445 32.2748 23.0112 31.5441 23.0112 30.6426V6.92104Z" fill="#F7F7F7"/>
<path d="M27.8061 6.92104C27.8061 6.01959 27.0394 5.28882 26.0936 5.28882C25.1478 5.28882 24.3811 6.01959 24.3811 6.92104V30.6426C24.3811 31.5441 25.1478 32.2748 26.0936 32.2748C27.0394 32.2748 27.8061 31.5441 27.8061 30.6426V6.92104Z" fill="#F7F7F7"/>
<path d="M32.601 6.92104C32.601 6.01959 31.8343 5.28882 30.8885 5.28882C29.9427 5.28882 29.176 6.01959 29.176 6.92104V30.6426C29.176 31.5441 29.9427 32.2748 30.8885 32.2748C31.8343 32.2748 32.601 31.5441 32.601 30.6426V6.92104Z" fill="#F7F7F7"/>
<path d="M37.3959 6.92104C37.3959 6.01959 36.6292 5.28882 35.6834 5.28882C34.7377 5.28882 33.9709 6.01959 33.9709 6.92104V11.9265C33.9709 12.8279 34.7377 13.5587 35.6834 13.5587C36.6292 13.5587 37.3959 12.8279 37.3959 11.9265V6.92104Z" fill="#F7F7F7"/>
<path d="M37.3959 25.6371C37.3959 24.7357 36.6292 24.0049 35.6834 24.0049C34.7377 24.0049 33.9709 24.7357 33.9709 25.6371V30.6426C33.9709 31.544 34.7377 32.2748 35.6834 32.2748C36.6292 32.2748 37.3959 31.544 37.3959 30.6426V25.6371Z" fill="#F7F7F7"/>
<path d="M42.1911 6.92104C42.1911 6.01959 41.4244 5.28882 40.4786 5.28882C39.5328 5.28882 38.7661 6.01959 38.7661 6.92104V35.8657C38.7661 36.7671 39.5328 37.4979 40.4786 37.4979C41.4244 37.4979 42.1911 36.7671 42.1911 35.8657V6.92104Z" fill="#F7F7F7"/>
</g>
<defs>
<clipPath id="clip0_318_189">
<rect width="47.4826" height="45.2568" fill="white" transform="translate(0.177979 0.500977)"/>
</clipPath>
</defs>
</svg>
