<svg width="32" height="33" viewBox="0 0 32 33" fill="none" xmlns="http://www.w3.org/2000/svg">
<g id="whatsapp 1" clip-path="url(#clip0_318_211)">
<g id="WA_Logo">
<g id="Group">
<path id="Vector" fill-rule="evenodd" clip-rule="evenodd" d="M26.9446 5.4546C24.0177 2.5251 20.1265 0.910483 15.9811 0.90918C7.43888 0.90918 0.48652 7.86024 0.482611 16.4064C0.481308 19.1378 1.19544 21.8041 2.55203 24.155L0.352295 32.185L8.56742 30.0296C10.831 31.265 13.38 31.9153 15.9733 31.9166H15.9798C24.5207 31.9166 31.4744 24.9642 31.4783 16.4181C31.4809 12.278 29.8702 8.3828 26.9446 5.4546ZM15.9811 29.2985H15.9759C13.6641 29.2985 11.3979 28.6769 9.41969 27.5028L8.94924 27.2239L4.07412 28.5023L5.37598 23.7484L5.06974 23.261C3.77961 21.2098 3.09936 18.8394 3.10066 16.4064C3.10327 9.30414 8.88278 3.52593 15.9876 3.52593C19.428 3.52593 22.6624 4.86818 25.0941 7.30248C27.5258 9.73809 28.8641 12.9738 28.8628 16.4155C28.8589 23.5203 23.0807 29.2985 15.9811 29.2985ZM23.0468 19.6512C22.6598 19.4571 20.7559 18.5201 20.4001 18.3911C20.0457 18.2621 19.7876 18.1969 19.5283 18.5839C19.269 18.971 18.5288 19.8441 18.302 20.1034C18.0766 20.3615 17.8498 20.394 17.4628 20.1999C17.0758 20.0057 15.8273 19.5978 14.3482 18.2777C13.1975 17.2508 12.4196 15.9828 12.1941 15.5945C11.9687 15.2062 12.1707 14.9976 12.3635 14.8048C12.5381 14.6315 12.7506 14.3526 12.9447 14.1258C13.1402 13.9017 13.2041 13.7401 13.3344 13.4808C13.4634 13.2227 13.3995 12.996 13.3018 12.8018C13.2041 12.609 12.43 10.7024 12.1081 9.92705C11.794 9.17122 11.4748 9.27417 11.2363 9.26244C11.0108 9.25071 10.7528 9.24941 10.4935 9.24941C10.2355 9.24941 9.81585 9.34584 9.46139 9.73418C9.10693 10.1225 8.1061 11.0595 8.1061 12.9647C8.1061 14.8712 9.49397 16.7126 9.68683 16.9706C9.8797 17.2287 12.417 21.1407 16.3017 22.8179C17.2256 23.2167 17.9476 23.4552 18.5092 23.6337C19.4371 23.9282 20.2815 23.8865 20.9487 23.7875C21.6929 23.6767 23.2397 22.8505 23.5629 21.9461C23.8861 21.0417 23.8861 20.265 23.7883 20.1047C23.6919 19.9418 23.4339 19.8454 23.0468 19.6512Z" fill="#369FFF"/>
</g>
</g>
</g>
<defs>
<clipPath id="clip0_318_211">
<rect width="31.2759" height="31.2759" fill="white" transform="translate(0.277832 0.90918)"/>
</clipPath>
</defs>
</svg>
